<?xml version="1.0" encoding="utf-8"?>
<svg viewBox="3.7450270652770996 4.57014274597168 1441.339111328125 1213.0460205078125" width="1441.339111328125" height="1213.0460205078125" xmlns="http://www.w3.org/2000/svg">
  <g transform="matrix(1, 0, 0, 1, 0, -617.8887329101562)">
    <path fill-rule="evenodd" clip-rule="evenodd" fill="#7C4299" d="M734.991,1631.674c-27.979,98.173-94.715,156.284-192.042,177.725&#10;&#9;&#9;c-118.525,26.106-238.007,25.011-355.9-4.488c-102.392-25.611-161.55-105.381-156.805-203.422&#10;&#9;&#9;c0.8-16.517,3.309-25.707,23.328-23.149c67.322,8.592,134.821,15.831,202.248,23.669c13.67,1.588,24.396,3.851,32.393,19.616&#10;&#9;&#9;c18.581,36.632,66.737,52.729,117.639,43.664c47.14-8.406,71.874-32.472,79.758-78.329c7.647-44.502,5.09-89.365,4.814-133.79&#10;&#9;&#9;c-7.523-4.741-10.959,0.878-14.945,4.58c-152.339,141.383-375.139,85.271-440.92-112.168&#10;&#9;&#9;c-30.686-92.102-30.814-186.735-2.754-278.887c58.071-190.696,310.947-247.496,447.772-102.399&#10;&#9;&#9;c7.097,7.53,14.01,15.229,23.247,25.288c8.338-18.832,5.695-37.085,4.067-53.907c-2.728-28.157,5.764-37.152,35.411-36.727&#10;&#9;&#9;c124.375,1.754,248.797-0.094,373.178,1.396c27.132,0.325,34.845-6.799,34.11-34.06c-1.969-72.515-0.123-145.123-1.035-217.684&#10;&#9;&#9;c-0.235-18.836,4.272-26.116,24.701-25.899c94.438,1.006,188.901,1.025,283.344-0.015c20.473-0.229,24.8,6.984,24.571,25.806&#10;&#9;&#9;c-0.924,74.861,0.393,149.749-0.856,224.598c-0.361,21.185,5.326,28.241,26.915,27.074c33.302-1.81,66.809,0.363,100.173-0.804&#10;&#9;&#9;c18.334-0.65,27.019,3.104,26.227,24.198c-1.586,42.561-1.119,85.233-0.176,127.83c0.364,16.75-5.583,21.9-21.87,21.442&#10;&#9;&#9;c-34.524-0.967-69.146,0.79-103.639-0.688c-20.312-0.866-27.936,3.908-27.697,26.275c1.201,111.715,0.308,223.457,0.686,335.181&#10;&#9;&#9;c0.145,40.955,25.688,65.926,66.279,67.689c27.346,1.188,63.228-11.862,79.812,5.09c18.059,18.449,4.777,54.658,5.598,83.07&#10;&#9;&#9;c1.104,37.982-0.498,76.032,0.611,114.011c0.527,18.16-2.883,26.693-24.008,26.347c-90.971-1.482-182.223,2.799-272.876-2.902&#10;&#9;&#9;c-83.731-5.258-147.334-47.253-180.824-128.325c-6.05-14.653-6.569-28.896-6.569-43.768&#10;&#9;&#9;c-0.056-149.739-0.828-299.485,0.674-449.217c0.276-27.931-8.01-34.905-34.518-33.615c-45.966,2.248-92.106,0.972-138.166,1.167&#10;&#9;&#9;c-27.819-5.335-28.859,11.453-28.787,32.375c0.52,140.416-0.128,280.829,0.554,421.237&#10;&#9;&#9;C748.885,1562.582,747.991,1597.794,734.991,1631.674z M492.217,1223.456c0.141-31.408-4.271-61.962-18.972-90.147&#10;&#9;&#9;c-21.902-41.97-65.628-65.329-111.278-60.092c-44.205,5.078-74.129,32.542-86.368,81.756c-10.125,40.7-11.081,82.228-1.496,123.05&#10;&#9;&#9;c13.499,57.512,59.941,90.073,116.967,84.321C452.998,1356.088,491.447,1303.272,492.217,1223.456z"/>
    <path fill-rule="evenodd" clip-rule="evenodd" fill="#81818B" d="M734.991,1631.674c13-33.88,13.894-69.093,13.723-104.915&#10;&#9;&#9;c-0.682-140.408-0.034-280.821-0.554-421.237c-0.072-20.923,0.968-37.711,28.787-32.375c30.963,17.32,65.56,24.84,98.729,36.07&#10;&#9;&#9;c17.176,5.821,25.456,13.031,25.678,33.497c1.36,127.416,4.113,254.822,7.456,382.204c0.52,19.837-4.481,31.364-23.715,39.352&#10;&#9;&#9;C834.452,1585.29,787.76,1615.237,734.991,1631.674z"/>
    <path fill-rule="evenodd" clip-rule="evenodd" fill="#7C4299" d="M1434.819,1559.385"/>
  </g>
</svg>